<svg width="33" height="33" viewBox="0 0 33 33" fill="none" xmlns="http://www.w3.org/2000/svg">
<g id="Brain" clip-path="url(#clip0_14_441)">
<g id="Vector" filter="url(#filter0_d_14_441)">
<path d="M27.4128 10.4662C27.1431 10.3286 26.9591 10.0591 26.9591 9.75635C26.9578 8.67291 26.6365 7.61399 26.0356 6.71247C25.4346 5.81095 24.5808 5.107 23.5813 4.68894C22.5818 4.27089 21.481 4.15736 20.4172 4.3626C19.3534 4.56784 18.3739 5.08271 17.6016 5.8426C17.5559 5.88864 17.5198 5.94328 17.4953 6.00335C17.4709 6.06342 17.4586 6.12774 17.4591 6.1926V17.2826C17.4593 17.3727 17.4839 17.4612 17.5303 17.5385C17.5767 17.6158 17.6431 17.6791 17.7225 17.7218C17.8019 17.7644 17.8914 17.7848 17.9814 17.7808C18.0715 17.7767 18.1588 17.7484 18.2341 17.6988C19.185 17.0892 20.2895 16.7623 21.4191 16.7563C21.6805 16.7515 21.9339 16.847 22.1271 17.0232C22.3204 17.1995 22.4387 17.443 22.4578 17.7038C22.465 17.8395 22.4444 17.9752 22.3973 18.1027C22.3503 18.2301 22.2777 18.3467 22.1842 18.4451C22.0906 18.5436 21.9779 18.622 21.853 18.6755C21.7282 18.729 21.5937 18.7565 21.4578 18.7563C20.397 18.7563 19.3796 19.1778 18.6294 19.9279C17.8793 20.6781 17.4578 21.6955 17.4578 22.7563V26.9913C17.4577 27.0661 17.4744 27.14 17.5066 27.2075C17.5389 27.275 17.5858 27.3344 17.6441 27.3813C18.3537 27.9686 19.1892 28.3843 20.0856 28.5962C20.982 28.808 21.9152 28.8102 22.8126 28.6027C23.7101 28.3952 24.5475 27.9835 25.26 27.3997C25.9724 26.8158 26.5406 26.0755 26.9203 25.2363C26.9586 25.152 26.9726 25.0586 26.9609 24.9667C26.9491 24.8748 26.9121 24.788 26.8539 24.7159C26.7957 24.6438 26.7186 24.5893 26.6312 24.5585C26.5438 24.5277 26.4496 24.5217 26.3591 24.5413C25.7358 24.6842 25.0985 24.7563 24.4591 24.7563H23.4928C23.2348 24.7595 22.9852 24.6651 22.7939 24.4919C22.6027 24.3187 22.484 24.0796 22.4616 23.8226C22.4525 23.6858 22.4716 23.5486 22.5178 23.4195C22.564 23.2905 22.6362 23.1723 22.73 23.0723C22.8238 22.9723 22.9371 22.8926 23.063 22.8383C23.1888 22.7839 23.3245 22.756 23.4616 22.7563H24.4616C25.5064 22.7579 26.5359 22.5057 27.4616 22.0213C28.5579 21.4504 29.4686 20.5787 30.087 19.5085C30.7055 18.4383 31.0059 17.2139 30.9532 15.979C30.9004 14.7441 30.4967 13.5498 29.7892 12.5362C29.1775 11.6596 28.3605 10.9496 27.4128 10.4662ZM25.4591 14.7563H24.9591C23.7656 14.7563 22.621 14.2822 21.7771 13.4383C20.9332 12.5944 20.4591 11.4498 20.4591 10.2563V9.75635C20.4591 9.49113 20.5644 9.23678 20.752 9.04924C20.9395 8.86171 21.1939 8.75635 21.4591 8.75635C21.7243 8.75635 21.9787 8.86171 22.1662 9.04924C22.3537 9.23678 22.4591 9.49113 22.4591 9.75635V10.2563C22.4591 10.5847 22.5237 10.9097 22.6494 11.2131C22.775 11.5164 22.9592 11.792 23.1913 12.0241C23.6602 12.493 24.296 12.7563 24.9591 12.7563H25.4591C25.7243 12.7563 25.9787 12.8617 26.1662 13.0492C26.3537 13.2368 26.4591 13.4911 26.4591 13.7563C26.4591 14.0216 26.3537 14.2759 26.1662 14.4635C25.9787 14.651 25.7243 14.7563 25.4591 14.7563ZM11.4591 4.25635C10.0009 4.258 8.60291 4.838 7.57182 5.86909C6.54073 6.90018 5.96074 8.29817 5.95908 9.75635C5.95908 10.0591 5.77511 10.3287 5.50542 10.4663C4.55787 10.95 3.74107 11.6601 3.12948 12.5368C2.42229 13.5505 2.0188 14.7449 1.96631 15.9798C1.91383 17.2147 2.21454 18.439 2.83317 19.509C3.4518 20.5791 4.36272 21.4506 5.45908 22.0213C6.3848 22.5057 7.41431 22.7579 8.45908 22.7563H9.42533C9.68375 22.7525 9.93403 22.8467 10.1258 23.02C10.3176 23.1932 10.4367 23.4326 10.4591 23.6901C10.4682 23.8269 10.449 23.9641 10.4029 24.0932C10.3567 24.2222 10.2845 24.3404 10.1907 24.4404C10.0969 24.5404 9.98357 24.6201 9.85771 24.6744C9.73186 24.7288 9.59617 24.7566 9.45908 24.7563H8.45908C7.81918 24.7566 7.18133 24.6841 6.55783 24.5401C6.46735 24.5204 6.37316 24.5261 6.28577 24.5568C6.19838 24.5874 6.12122 24.6418 6.06289 24.7137C6.00456 24.7856 5.96736 24.8724 5.95543 24.9642C5.94351 25.056 5.95732 25.1494 5.99533 25.2338C6.375 26.0732 6.94313 26.8138 7.65556 27.3979C8.36799 27.982 9.20552 28.3939 10.1031 28.6017C11.0006 28.8094 11.934 28.8074 12.8306 28.5958C13.7272 28.3841 14.5629 27.9685 15.2728 27.3813C15.3311 27.3344 15.378 27.275 15.4103 27.2075C15.4425 27.14 15.4592 27.0661 15.4591 26.9913V22.7563C15.4591 21.6955 15.0377 20.6781 14.2875 19.9279C13.5374 19.1778 12.5199 18.7563 11.4591 18.7563C11.3232 18.7565 11.1888 18.729 11.0639 18.6755C10.939 18.622 10.8263 18.5436 10.7327 18.4451C10.6392 18.3467 10.5666 18.2301 10.5196 18.1027C10.4725 17.9752 10.452 17.8395 10.4591 17.7038C10.4782 17.4428 10.5967 17.1991 10.7902 17.0228C10.9837 16.8465 11.2374 16.7512 11.4991 16.7563C12.6286 16.7623 13.7332 17.0892 14.6841 17.6988C14.7594 17.7484 14.8467 17.7767 14.9367 17.7808C15.0268 17.7848 15.1163 17.7644 15.1957 17.7218C15.2751 17.6791 15.3415 17.6158 15.3879 17.5385C15.4342 17.4612 15.4588 17.3727 15.4591 17.2826V6.1926C15.4595 6.06135 15.4083 5.93519 15.3166 5.84135C14.2898 4.82538 12.9035 4.25577 11.4591 4.25635ZM12.4591 10.2563C12.4591 11.4498 11.985 12.5944 11.1411 13.4383C10.2971 14.2822 9.15256 14.7563 7.95908 14.7563H7.45908C7.19387 14.7563 6.93951 14.651 6.75198 14.4635C6.56444 14.2759 6.45908 14.0216 6.45908 13.7563C6.45908 13.4911 6.56444 13.2368 6.75198 13.0492C6.93951 12.8617 7.19387 12.7563 7.45908 12.7563H7.95908C8.28739 12.7563 8.61248 12.6917 8.91579 12.566C9.21911 12.4404 9.4947 12.2563 9.72685 12.0241C9.959 11.792 10.1431 11.5164 10.2688 11.2131C10.3944 10.9097 10.4591 10.5847 10.4591 10.2563V9.75635C10.4591 9.49113 10.5644 9.23678 10.752 9.04924C10.9395 8.86171 11.1939 8.75635 11.4591 8.75635C11.7243 8.75635 11.9787 8.86171 12.1662 9.04924C12.3537 9.23678 12.4591 9.49113 12.4591 9.75635V10.2563Z" fill="white"/>
</g>
</g>
<defs>
<filter id="filter0_d_14_441" x="-46.0396" y="-19.7437" width="124.999" height="120.501" filterUnits="userSpaceOnUse" color-interpolation-filters="sRGB">
<feFlood flood-opacity="0" result="BackgroundImageFix"/>
<feColorMatrix in="SourceAlpha" type="matrix" values="0 0 0 0 0 0 0 0 0 0 0 0 0 0 0 0 0 0 127 0" result="hardAlpha"/>
<feOffset dy="24"/>
<feGaussianBlur stdDeviation="24"/>
<feComposite in2="hardAlpha" operator="out"/>
<feColorMatrix type="matrix" values="0 0 0 0 0.00757305 0 0 0 0 0.143701 0 0 0 0 0.24196 0 0 0 0.08 0"/>
<feBlend mode="normal" in2="BackgroundImageFix" result="effect1_dropShadow_14_441"/>
<feBlend mode="normal" in="SourceGraphic" in2="effect1_dropShadow_14_441" result="shape"/>
</filter>
<clipPath id="clip0_14_441">
<rect width="32" height="32" fill="white" transform="translate(0.458984 0.756348)"/>
</clipPath>
</defs>
</svg>
